<svg width="100" height="100" viewBox="0 0 100 100" fill="none" xmlns="http://www.w3.org/2000/svg">
<path d="M41.8108 41.119C41.0324 39.6958 39.243 39.173 37.8184 39.9543C36.3937 40.7355 35.871 42.5235 36.6522 43.9481C39.2861 48.7505 44.4044 51.7348 50.011 51.7348C55.4482 51.7348 60.5005 48.9113 63.1946 44.366C64.0218 42.9687 63.5623 41.1649 62.1635 40.3363C60.7647 39.5076 58.9609 39.9715 58.1337 41.3674C56.4937 44.1334 53.383 45.8524 50.011 45.8524C46.5529 45.8524 43.4106 44.0386 41.8108 41.119ZM29.5291 33.9412C31.1547 33.9412 32.4702 32.6243 32.4702 31C32.4702 28.5673 34.4492 26.5883 36.882 26.5883C39.3148 26.5883 41.2938 28.5673 41.2938 31C41.2938 32.6243 42.6093 33.9412 44.2349 33.9412C45.8606 33.9412 47.1761 32.6243 47.1761 31C47.1761 25.3245 42.5576 20.7059 36.882 20.7059C31.2064 20.7059 26.5879 25.3245 26.5879 31C26.5879 32.6243 27.9034 33.9412 29.5291 33.9412ZM55.9997 33.9412C57.6253 33.9412 58.9408 32.6243 58.9408 31C58.9408 28.5673 60.9198 26.5883 63.3526 26.5883C65.7854 26.5883 67.7644 28.5673 67.7644 31C67.7644 32.6243 69.0799 33.9412 70.7055 33.9412C72.3312 33.9412 73.6467 32.6243 73.6467 31C73.6467 25.3245 69.0282 20.7059 63.3526 20.7059C57.677 20.7059 53.0585 25.3245 53.0585 31C53.0585 32.6243 54.374 33.9412 55.9997 33.9412Z" fill="#3EBBDD"/>
<path d="M50.1172 94.2353C74.445 94.2353 94.2348 74.4441 94.2348 50.1176C94.2348 25.7912 74.445 6 50.1172 6C25.7893 6 5.99951 25.7912 5.99951 50.1176C5.99951 74.4441 25.7893 94.2353 50.1172 94.2353ZM50.1172 11.8824C71.1994 11.8824 88.3525 29.0339 88.3525 50.1176C88.3525 71.2014 71.1994 88.3529 50.1172 88.3529C29.0349 88.3529 11.8819 71.2014 11.8819 50.1176C11.8819 29.0339 29.0349 11.8824 50.1172 11.8824Z" fill="#3EBBDD"/>
</svg>
