<svg width="14" height="14" viewBox="0 0 14 14" fill="none" xmlns="http://www.w3.org/2000/svg">
<path d="M13.6431 6.17815L10.8306 8.60502L11.6875 12.2344C11.7347 12.4314 11.7226 12.638 11.6525 12.8281C11.5824 13.0182 11.4575 13.1833 11.2937 13.3025C11.1298 13.4217 10.9343 13.4896 10.7319 13.4977C10.5294 13.5059 10.3291 13.4538 10.1562 13.3481L6.99996 11.4056L3.84184 13.3481C3.66898 13.4532 3.4689 13.5048 3.2668 13.4963C3.06469 13.4879 2.8696 13.4199 2.70609 13.3008C2.54257 13.1817 2.41795 13.0169 2.3479 12.8272C2.27786 12.6374 2.26553 12.4312 2.31246 12.2344L3.17246 8.60502L0.359961 6.17815C0.207022 6.04596 0.0964141 5.87166 0.0419501 5.67699C-0.0125139 5.48232 -0.00842004 5.27592 0.0537205 5.08356C0.115861 4.89121 0.233294 4.72142 0.391354 4.59541C0.549414 4.4694 0.741096 4.39274 0.942461 4.37502L4.62996 4.07752L6.05246 0.63502C6.12946 0.447406 6.26051 0.286926 6.42894 0.173982C6.59738 0.061038 6.7956 0.000732422 6.9984 0.000732422C7.2012 0.000732422 7.39942 0.061038 7.56785 0.173982C7.73629 0.286926 7.86734 0.447406 7.94434 0.63502L9.36621 4.07752L13.0537 4.37502C13.2555 4.39208 13.4477 4.46831 13.6064 4.59415C13.765 4.71999 13.883 4.88984 13.9455 5.08243C14.008 5.27502 14.0123 5.48178 13.9579 5.6768C13.9034 5.87182 13.7926 6.04644 13.6393 6.17877L13.6431 6.17815Z" fill="#FFC144"/>
</svg>
