<svg width="20" height="21" viewBox="0 0 20 21" fill="none" xmlns="http://www.w3.org/2000/svg">
<path d="M18.3999 11.16C18.2396 10.9775 18.1512 10.7429 18.1512 10.5C18.1512 10.2571 18.2396 10.0225 18.3999 9.84002L19.6799 8.40002C19.8209 8.24269 19.9085 8.04472 19.9301 7.83452C19.9516 7.62433 19.9061 7.4127 19.7999 7.23002L17.7999 3.77002C17.6948 3.58754 17.5348 3.44289 17.3426 3.3567C17.1505 3.27051 16.9361 3.24718 16.7299 3.29002L14.8499 3.67002C14.6107 3.71945 14.3616 3.67961 14.1498 3.55802C13.9379 3.43643 13.7779 3.2415 13.6999 3.01002L13.0899 1.18002C13.0228 0.981396 12.895 0.808882 12.7245 0.686859C12.5541 0.564836 12.3495 0.499476 12.1399 0.500017H8.1399C7.92183 0.488635 7.70603 0.548944 7.52546 0.671731C7.34489 0.794519 7.20948 0.973036 7.1399 1.18002L6.5799 3.01002C6.5019 3.2415 6.34187 3.43643 6.13001 3.55802C5.91815 3.67961 5.66911 3.71945 5.4299 3.67002L3.4999 3.29002C3.30445 3.2624 3.1052 3.29324 2.92724 3.37866C2.74929 3.46407 2.6006 3.60025 2.4999 3.77002L0.499896 7.23002C0.391056 7.41067 0.342118 7.6211 0.360079 7.83124C0.378039 8.04138 0.461979 8.24046 0.599896 8.40002L1.8699 9.84002C2.03022 10.0225 2.11863 10.2571 2.11863 10.5C2.11863 10.7429 2.03022 10.9775 1.8699 11.16L0.599896 12.6C0.461979 12.7596 0.378039 12.9587 0.360079 13.1688C0.342118 13.3789 0.391056 13.5894 0.499896 13.77L2.4999 17.23C2.60499 17.4125 2.76502 17.5571 2.95715 17.6433C3.14928 17.7295 3.36372 17.7529 3.5699 17.71L5.4499 17.33C5.68911 17.2806 5.93815 17.3204 6.15001 17.442C6.36187 17.5636 6.5219 17.7585 6.5999 17.99L7.2099 19.82C7.27948 20.027 7.41489 20.2055 7.59546 20.3283C7.77603 20.4511 7.99183 20.5114 8.2099 20.5H12.2099C12.4195 20.5006 12.6241 20.4352 12.7945 20.3132C12.965 20.1912 13.0928 20.0186 13.1599 19.82L13.7699 17.99C13.8479 17.7585 14.0079 17.5636 14.2198 17.442C14.4316 17.3204 14.6807 17.2806 14.9199 17.33L16.7999 17.71C17.0061 17.7529 17.2205 17.7295 17.4126 17.6433C17.6048 17.5571 17.7648 17.4125 17.8699 17.23L19.8699 13.77C19.9761 13.5873 20.0216 13.3757 20.0001 13.1655C19.9785 12.9553 19.8909 12.7573 19.7499 12.6L18.3999 11.16ZM16.9099 12.5L17.7099 13.4L16.4299 15.62L15.2499 15.38C14.5297 15.2328 13.7805 15.3551 13.1445 15.7238C12.5085 16.0925 12.03 16.6819 11.7999 17.38L11.4199 18.5H8.8599L8.4999 17.36C8.26975 16.6619 7.79128 16.0725 7.1553 15.7038C6.51932 15.3351 5.77012 15.2128 5.0499 15.36L3.8699 15.6L2.5699 13.39L3.3699 12.49C3.86185 11.94 4.13383 11.2279 4.13383 10.49C4.13383 9.75208 3.86185 9.04004 3.3699 8.49002L2.5699 7.59002L3.8499 5.39002L5.0299 5.63002C5.75012 5.77724 6.49932 5.6549 7.1353 5.28622C7.77128 4.91753 8.24975 4.32818 8.4799 3.63002L8.8599 2.50002H11.4199L11.7999 3.64002C12.03 4.33818 12.5085 4.92753 13.1445 5.29622C13.7805 5.6649 14.5297 5.78724 15.2499 5.64002L16.4299 5.40002L17.7099 7.62002L16.9099 8.52002C16.4235 9.06878 16.1549 9.7767 16.1549 10.51C16.1549 11.2433 16.4235 11.9513 16.9099 12.5ZM10.1399 6.50002C9.34877 6.50002 8.57541 6.73461 7.91761 7.17414C7.25982 7.61366 6.74713 8.23838 6.44438 8.96928C6.14163 9.70019 6.06241 10.5045 6.21675 11.2804C6.3711 12.0563 6.75206 12.769 7.31147 13.3284C7.87088 13.8879 8.58361 14.2688 9.35954 14.4232C10.1355 14.5775 10.9397 14.4983 11.6706 14.1955C12.4015 13.8928 13.0262 13.3801 13.4658 12.7223C13.9053 12.0645 14.1399 11.2911 14.1399 10.5C14.1399 9.43915 13.7185 8.42174 12.9683 7.67159C12.2182 6.92144 11.2008 6.50002 10.1399 6.50002ZM10.1399 12.5C9.74433 12.5 9.35765 12.3827 9.02876 12.163C8.69986 11.9432 8.44351 11.6308 8.29214 11.2654C8.14076 10.8999 8.10116 10.4978 8.17833 10.1098C8.2555 9.72187 8.44598 9.36551 8.72568 9.0858C9.00539 8.8061 9.36175 8.61562 9.74972 8.53845C10.1377 8.46128 10.5398 8.50088 10.9053 8.65226C11.2707 8.80363 11.5831 9.05998 11.8028 9.38888C12.0226 9.71778 12.1399 10.1045 12.1399 10.5C12.1399 11.0304 11.9292 11.5392 11.5541 11.9142C11.179 12.2893 10.6703 12.5 10.1399 12.5Z" fill="#8D8383"/>
</svg>
